<?xml version="1.0" encoding="UTF-8"?>
<svg id="_图层_2" data-name="图层_2" xmlns="http://www.w3.org/2000/svg" viewBox="0 0 318.77 55.9">
  <defs>
    <style>
      .cls-1 {
        fill: #fff;
      }
    </style>
  </defs>
  <g id="_图层_3" data-name="图层_3">
    <g>
      <g>
        <path class="cls-1" d="M0,35.97c0-12.59,4.61-19.94,19.62-19.94s19.7,7.35,19.7,19.94-4.69,19.94-19.7,19.94S0,48.55,0,35.97ZM34.32,35.97c0-10.63-3.36-15.87-14.7-15.87s-14.62,5.24-14.62,15.87,3.28,15.87,14.62,15.87,14.7-5.24,14.7-15.87Z"/>
        <path class="cls-1" d="M51.29,46.36l-.47,8.37h-3.44V0h4.93v14.15c0,2.58-.23,8.05-.47,11.49,1.09-4.46,5.16-9.62,15.17-9.62,13.13,0,17.83,6.96,17.83,19.94s-4.85,19.94-17.98,19.94c-10.71,0-14.15-5.08-15.56-9.54ZM79.75,35.97c0-10.71-3.36-15.87-13.76-15.87s-13.84,5.16-13.84,15.87,3.44,15.79,13.84,15.79,13.76-5.08,13.76-15.79Z"/>
        <path class="cls-1" d="M93.35,36.04h18.69v3.67h-18.69v-3.67Z"/>
        <path class="cls-1" d="M121.34,53.56v-4.3c2.97.86,8.91,2.42,15.64,2.42,8.44,0,10.95-2.35,10.95-6.72,0-5-3.44-5.71-11.65-7.35-9.77-1.95-15.4-3.36-15.4-11.26,0-6.41,3.75-10.24,15.48-10.24,5.32,0,10.79.78,13.76,1.25v4.3c-2.35-.47-7.82-1.49-13.68-1.49-8.52,0-10.71,2.19-10.71,5.86,0,4.77,3.52,5.47,11.42,6.96,10.09,1.96,15.64,3.13,15.64,11.65,0,7.27-3.99,11.18-15.95,11.18-6.8,0-12.43-1.25-15.48-2.27Z"/>
        <path class="cls-1" d="M177.8,20.02c-10.32,0-14.15,4.3-14.15,15.95s3.83,15.87,14.07,15.87c4.85,0,9.38-1.02,13.37-2.5v4.22c-3.05,1.25-8.37,2.35-13.6,2.35-13.45,0-18.76-6.1-18.76-19.94s5.32-19.94,18.84-19.94c4.22,0,9.15.62,12.59,1.56v4.22c-4.22-1.09-8.37-1.8-12.35-1.8Z"/>
        <path class="cls-1" d="M215.17,55.9c-15.32,0-19.7-6.8-19.7-19.94s4.46-20.02,18.69-20.02c13.13,0,17.43,7.11,17.43,18.29,0,.55,0,1.88-.08,3.21h-31.12c.16,10.01,3.6,14.39,14.85,14.39,5.32,0,10.24-1.02,14.54-2.5v4.3c-3.36,1.25-9.23,2.27-14.62,2.27ZM200.39,33.62h26.27c0-8.76-2.97-13.76-12.59-13.76-10.32,0-13.45,5-13.68,13.76Z"/>
        <path class="cls-1" d="M243.71,17.2l.47,7.9c.86-4.22,4.61-9.07,14.62-9.07,12.28,0,15.79,5.32,15.79,14.93v23.77h-4.93v-23.3c0-7.66-2.27-11.26-11.73-11.26-10.09,0-12.75,5.55-12.75,12.43v22.13h-5V17.2h3.52Z"/>
        <path class="cls-1" d="M302.35,55.9c-15.32,0-19.7-6.8-19.7-19.94s4.46-20.02,18.69-20.02c13.13,0,17.43,7.11,17.43,18.29,0,.55,0,1.88-.08,3.21h-31.12c.16,10.01,3.6,14.39,14.85,14.39,5.32,0,10.24-1.02,14.54-2.5v4.3c-3.36,1.25-9.23,2.27-14.62,2.27ZM287.57,33.62h26.27c0-8.76-2.97-13.76-12.59-13.76-10.32,0-13.45,5-13.68,13.76Z"/>
      </g>
      <rect class="cls-1" x="255.4" y="32.16" width="4" height="13.99"/>
      <rect class="cls-1" x="16.77" y="33.62" width="5" height="5.53"/>
    </g>
  </g>
</svg>